<mxfile host="app.diagrams.net" modified="2024-04-08T19:18:22.725Z" agent="Mozilla/5.0 (Macintosh; Intel Mac OS X 10_15_7) AppleWebKit/537.36 (KHTML, like Gecko) Chrome/123.0.0.0 Safari/537.36" etag="WW51nTmQFtp2Ai6gIz7k" version="24.2.2" type="github">
  <diagram name="Page-1" id="1_jGz1skp5MGL0Hfow_j">
    <mxGraphModel dx="1505" dy="844" grid="1" gridSize="10" guides="1" tooltips="1" connect="1" arrows="1" fold="1" page="1" pageScale="1" pageWidth="1100" pageHeight="850" math="0" shadow="0">
      <root>
        <mxCell id="0" />
        <mxCell id="1" parent="0" />
        <mxCell id="sjEtKSL0Iv_LHzyLlkam-6" value="" style="group" vertex="1" connectable="0" parent="1">
          <mxGeometry x="60" y="120" width="610" height="540" as="geometry" />
        </mxCell>
        <mxCell id="o3WoTyYF3CoVZhlBRWT3-3" value="" style="rounded=1;whiteSpace=wrap;html=1;fillColor=none;strokeColor=#09C3E0;strokeWidth=2;" parent="sjEtKSL0Iv_LHzyLlkam-6" vertex="1">
          <mxGeometry y="180" width="128.42105263157896" height="78.26086956521739" as="geometry" />
        </mxCell>
        <mxCell id="o3WoTyYF3CoVZhlBRWT3-1" value="" style="sketch=0;outlineConnect=0;fontColor=#232F3E;gradientColor=none;fillColor=#232F3D;strokeColor=none;dashed=0;verticalLabelPosition=bottom;verticalAlign=top;align=center;html=1;fontSize=12;fontStyle=0;aspect=fixed;pointerEvents=1;shape=mxgraph.aws4.mobile_client;" parent="sjEtKSL0Iv_LHzyLlkam-6" vertex="1">
          <mxGeometry x="79.15552631578949" y="190.40086956521742" width="21.036521739130436" height="40.022608695652174" as="geometry" />
        </mxCell>
        <mxCell id="o3WoTyYF3CoVZhlBRWT3-4" value="&lt;font style=&quot;font-size: 15px;&quot;&gt;client&lt;/font&gt;" style="text;html=1;align=center;verticalAlign=middle;resizable=0;points=[];autosize=1;strokeColor=none;fillColor=none;" parent="sjEtKSL0Iv_LHzyLlkam-6" vertex="1">
          <mxGeometry x="40.131578947368425" y="230.4234782608696" width="60" height="30" as="geometry" />
        </mxCell>
        <mxCell id="o3WoTyYF3CoVZhlBRWT3-6" value="" style="sketch=0;aspect=fixed;pointerEvents=1;shadow=0;dashed=0;html=1;strokeColor=none;labelPosition=center;verticalLabelPosition=bottom;verticalAlign=top;align=center;fillColor=#000000;shape=mxgraph.azure.laptop" parent="sjEtKSL0Iv_LHzyLlkam-6" vertex="1">
          <mxGeometry x="8.828947368421053" y="193.86782608695654" width="55.1504347826087" height="33.08869565217392" as="geometry" />
        </mxCell>
        <mxCell id="o3WoTyYF3CoVZhlBRWT3-7" value="" style="endArrow=classic;html=1;rounded=0;strokeWidth=2;" parent="sjEtKSL0Iv_LHzyLlkam-6" edge="1">
          <mxGeometry width="50" height="50" relative="1" as="geometry">
            <mxPoint x="128.42105263157896" y="219.13043478260872" as="sourcePoint" />
            <mxPoint x="184.60526315789474" y="219.13043478260872" as="targetPoint" />
          </mxGeometry>
        </mxCell>
        <mxCell id="o3WoTyYF3CoVZhlBRWT3-11" value="" style="group" parent="sjEtKSL0Iv_LHzyLlkam-6" vertex="1" connectable="0">
          <mxGeometry x="296.97368421052636" y="187.82608695652175" width="96.31578947368422" height="65.73913043478261" as="geometry" />
        </mxCell>
        <mxCell id="o3WoTyYF3CoVZhlBRWT3-8" value="" style="shape=hexagon;perimeter=hexagonPerimeter2;whiteSpace=wrap;html=1;fixedSize=1;strokeWidth=2;strokeColor=#09C3E0;" parent="o3WoTyYF3CoVZhlBRWT3-11" vertex="1">
          <mxGeometry width="96.31578947368422" height="62.608695652173914" as="geometry" />
        </mxCell>
        <mxCell id="o3WoTyYF3CoVZhlBRWT3-9" value="&lt;font style=&quot;font-size: 15px;&quot;&gt;Rate limiter&amp;nbsp;&lt;/font&gt;&lt;div style=&quot;font-size: 15px;&quot;&gt;&lt;font style=&quot;font-size: 15px;&quot;&gt;middleware&lt;/font&gt;&lt;/div&gt;&lt;div style=&quot;font-size: 15px;&quot;&gt;&lt;br&gt;&lt;/div&gt;" style="text;html=1;align=center;verticalAlign=middle;resizable=0;points=[];autosize=1;strokeColor=none;fillColor=none;" parent="o3WoTyYF3CoVZhlBRWT3-11" vertex="1">
          <mxGeometry x="8.026315789473685" y="10.956521739130435" width="100" height="70" as="geometry" />
        </mxCell>
        <mxCell id="o3WoTyYF3CoVZhlBRWT3-12" value="" style="outlineConnect=0;dashed=0;verticalLabelPosition=bottom;verticalAlign=top;align=center;html=1;shape=mxgraph.aws3.classic_load_balancer;fillColor=#F58534;gradientColor=none;" parent="sjEtKSL0Iv_LHzyLlkam-6" vertex="1">
          <mxGeometry x="184.60526315789474" y="190.40086956521742" width="55.381578947368425" height="56.34782608695652" as="geometry" />
        </mxCell>
        <mxCell id="o3WoTyYF3CoVZhlBRWT3-13" value="" style="endArrow=classic;html=1;rounded=0;strokeWidth=2;" parent="sjEtKSL0Iv_LHzyLlkam-6" edge="1">
          <mxGeometry width="50" height="50" relative="1" as="geometry">
            <mxPoint x="240.78947368421055" y="219.13043478260872" as="sourcePoint" />
            <mxPoint x="296.97368421052636" y="219.13043478260872" as="targetPoint" />
          </mxGeometry>
        </mxCell>
        <mxCell id="o3WoTyYF3CoVZhlBRWT3-14" value="&lt;font style=&quot;font-size: 15px;&quot;&gt;Load&amp;nbsp;&lt;/font&gt;&lt;div style=&quot;font-size: 15px;&quot;&gt;&lt;font style=&quot;font-size: 15px;&quot;&gt;balancer&lt;/font&gt;&lt;/div&gt;" style="text;html=1;align=center;verticalAlign=middle;resizable=0;points=[];autosize=1;strokeColor=none;fillColor=none;" parent="sjEtKSL0Iv_LHzyLlkam-6" vertex="1">
          <mxGeometry x="180.19078947368422" y="148.69565217391306" width="80" height="50" as="geometry" />
        </mxCell>
        <mxCell id="o3WoTyYF3CoVZhlBRWT3-15" value="" style="outlineConnect=0;dashed=0;verticalLabelPosition=bottom;verticalAlign=top;align=center;html=1;shape=mxgraph.aws3.cache_node;fillColor=#2E73B8;gradientColor=none;" parent="sjEtKSL0Iv_LHzyLlkam-6" vertex="1">
          <mxGeometry x="417.3684210526316" y="81" width="48.15789473684211" height="49.30434782608696" as="geometry" />
        </mxCell>
        <mxCell id="o3WoTyYF3CoVZhlBRWT3-16" value="" style="endArrow=classic;html=1;rounded=0;entryX=0.5;entryY=1;entryDx=0;entryDy=0;entryPerimeter=0;strokeWidth=2;" parent="sjEtKSL0Iv_LHzyLlkam-6" target="o3WoTyYF3CoVZhlBRWT3-15" edge="1">
          <mxGeometry width="50" height="50" relative="1" as="geometry">
            <mxPoint x="393.2894736842106" y="219.13043478260872" as="sourcePoint" />
            <mxPoint x="433.42105263157896" y="180" as="targetPoint" />
          </mxGeometry>
        </mxCell>
        <mxCell id="o3WoTyYF3CoVZhlBRWT3-27" value="" style="rounded=1;whiteSpace=wrap;html=1;strokeColor=#09C3E0;strokeWidth=2;" parent="sjEtKSL0Iv_LHzyLlkam-6" vertex="1">
          <mxGeometry x="537.7631578947369" width="64.21052631578948" height="31.304347826086957" as="geometry" />
        </mxCell>
        <mxCell id="o3WoTyYF3CoVZhlBRWT3-28" value="&lt;font style=&quot;font-size: 15px;&quot;&gt;Rules&lt;/font&gt;" style="text;html=1;align=center;verticalAlign=middle;resizable=0;points=[];autosize=1;strokeColor=none;fillColor=none;strokeWidth=2;" parent="sjEtKSL0Iv_LHzyLlkam-6" vertex="1">
          <mxGeometry x="545.7894736842105" y="3.9130434782608696" width="60" height="30" as="geometry" />
        </mxCell>
        <mxCell id="o3WoTyYF3CoVZhlBRWT3-29" value="" style="edgeStyle=orthogonalEdgeStyle;rounded=0;orthogonalLoop=1;jettySize=auto;html=1;entryX=0.5;entryY=1;entryDx=0;entryDy=0;strokeWidth=2;" parent="sjEtKSL0Iv_LHzyLlkam-6" source="o3WoTyYF3CoVZhlBRWT3-19" target="o3WoTyYF3CoVZhlBRWT3-27" edge="1">
          <mxGeometry relative="1" as="geometry">
            <mxPoint x="569.8684210526316" y="54.78260869565218" as="targetPoint" />
          </mxGeometry>
        </mxCell>
        <mxCell id="o3WoTyYF3CoVZhlBRWT3-30" value="" style="edgeStyle=orthogonalEdgeStyle;rounded=0;orthogonalLoop=1;jettySize=auto;html=1;strokeWidth=2;" parent="sjEtKSL0Iv_LHzyLlkam-6" source="o3WoTyYF3CoVZhlBRWT3-19" target="o3WoTyYF3CoVZhlBRWT3-15" edge="1">
          <mxGeometry relative="1" as="geometry" />
        </mxCell>
        <mxCell id="o3WoTyYF3CoVZhlBRWT3-40" value="" style="endArrow=classic;html=1;rounded=0;strokeWidth=2;" parent="sjEtKSL0Iv_LHzyLlkam-6" edge="1">
          <mxGeometry width="50" height="50" relative="1" as="geometry">
            <mxPoint x="393.2894736842106" y="219.13043478260872" as="sourcePoint" />
            <mxPoint x="481.5789473684211" y="219.13043478260872" as="targetPoint" />
          </mxGeometry>
        </mxCell>
        <mxCell id="o3WoTyYF3CoVZhlBRWT3-41" value="" style="image;sketch=0;aspect=fixed;html=1;points=[];align=center;fontSize=12;image=img/lib/mscae/Cache_Redis_Product.svg;" parent="sjEtKSL0Iv_LHzyLlkam-6" vertex="1">
          <mxGeometry x="441.44736842105266" y="297.3913043478261" width="51.24521739130435" height="43.04347826086957" as="geometry" />
        </mxCell>
        <mxCell id="o3WoTyYF3CoVZhlBRWT3-42" value="&lt;font style=&quot;font-size: 15px;&quot;&gt;Redis&lt;/font&gt;" style="text;html=1;align=center;verticalAlign=middle;resizable=0;points=[];autosize=1;strokeColor=none;fillColor=none;" parent="sjEtKSL0Iv_LHzyLlkam-6" vertex="1">
          <mxGeometry x="445.84578947368425" y="340.4347826086957" width="60" height="30" as="geometry" />
        </mxCell>
        <mxCell id="o3WoTyYF3CoVZhlBRWT3-43" value="" style="endArrow=classic;html=1;rounded=0;strokeWidth=2;entryX=0.206;entryY=-0.073;entryDx=0;entryDy=0;entryPerimeter=0;" parent="sjEtKSL0Iv_LHzyLlkam-6" target="o3WoTyYF3CoVZhlBRWT3-41" edge="1">
          <mxGeometry width="50" height="50" relative="1" as="geometry">
            <mxPoint x="393.2894736842106" y="219.13043478260872" as="sourcePoint" />
            <mxPoint x="441.44736842105266" y="281.7391304347826" as="targetPoint" />
          </mxGeometry>
        </mxCell>
        <mxCell id="o3WoTyYF3CoVZhlBRWT3-45" value="" style="endArrow=none;html=1;rounded=0;fillColor=#e51400;strokeColor=#FF3333;strokeWidth=2;" parent="sjEtKSL0Iv_LHzyLlkam-6" edge="1">
          <mxGeometry width="50" height="50" relative="1" as="geometry">
            <mxPoint x="345.13157894736844" y="422.60869565217394" as="sourcePoint" />
            <mxPoint x="345.13157894736844" y="251.21739130434784" as="targetPoint" />
          </mxGeometry>
        </mxCell>
        <mxCell id="o3WoTyYF3CoVZhlBRWT3-49" value="" style="endArrow=none;html=1;rounded=0;fillColor=#e51400;strokeColor=#FF3333;strokeWidth=2;" parent="sjEtKSL0Iv_LHzyLlkam-6" edge="1">
          <mxGeometry width="50" height="50" relative="1" as="geometry">
            <mxPoint x="65.39039473684211" y="422.60869565217394" as="sourcePoint" />
            <mxPoint x="346.3114473684211" y="422.60869565217394" as="targetPoint" />
          </mxGeometry>
        </mxCell>
        <mxCell id="o3WoTyYF3CoVZhlBRWT3-51" value="" style="endArrow=classic;html=1;rounded=0;entryX=0.5;entryY=1;entryDx=0;entryDy=0;fillColor=#e51400;strokeColor=#FF3333;strokeWidth=2;" parent="sjEtKSL0Iv_LHzyLlkam-6" target="o3WoTyYF3CoVZhlBRWT3-3" edge="1">
          <mxGeometry width="50" height="50" relative="1" as="geometry">
            <mxPoint x="64.21052631578948" y="422.60869565217394" as="sourcePoint" />
            <mxPoint x="240.78947368421055" y="203.47826086956522" as="targetPoint" />
          </mxGeometry>
        </mxCell>
        <mxCell id="o3WoTyYF3CoVZhlBRWT3-52" value="" style="endArrow=classic;html=1;rounded=0;strokeColor=#FF3333;strokeWidth=2;dashed=1;" parent="sjEtKSL0Iv_LHzyLlkam-6" edge="1">
          <mxGeometry width="50" height="50" relative="1" as="geometry">
            <mxPoint x="345.13157894736844" y="422.60869565217394" as="sourcePoint" />
            <mxPoint x="441.44736842105266" y="422.60869565217394" as="targetPoint" />
          </mxGeometry>
        </mxCell>
        <mxCell id="o3WoTyYF3CoVZhlBRWT3-53" value="" style="verticalLabelPosition=bottom;verticalAlign=top;html=1;shape=mxgraph.basic.drop;strokeWidth=2;" parent="sjEtKSL0Iv_LHzyLlkam-6" vertex="1">
          <mxGeometry x="453.06947368421055" y="391.304347826087" width="33.71052631578947" height="46.95652173913044" as="geometry" />
        </mxCell>
        <mxCell id="o3WoTyYF3CoVZhlBRWT3-54" value="&lt;font style=&quot;font-size: 15px;&quot;&gt;Request Dropped&lt;/font&gt;" style="text;html=1;align=center;verticalAlign=middle;resizable=0;points=[];autosize=1;strokeColor=none;fillColor=none;" parent="sjEtKSL0Iv_LHzyLlkam-6" vertex="1">
          <mxGeometry x="417.3684210526316" y="438.26086956521743" width="140" height="30" as="geometry" />
        </mxCell>
        <mxCell id="o3WoTyYF3CoVZhlBRWT3-55" value="&lt;font style=&quot;font-size: 15px;&quot;&gt;option 1&lt;/font&gt;" style="text;html=1;align=center;verticalAlign=middle;resizable=0;points=[];autosize=1;strokeColor=none;fillColor=none;" parent="sjEtKSL0Iv_LHzyLlkam-6" vertex="1">
          <mxGeometry x="349.14473684210526" y="399.1304347826087" width="80" height="30" as="geometry" />
        </mxCell>
        <mxCell id="o3WoTyYF3CoVZhlBRWT3-56" value="" style="endArrow=classic;html=1;rounded=0;strokeColor=#FF3333;strokeWidth=2;dashed=1;exitX=-0.019;exitY=1.05;exitDx=0;exitDy=0;exitPerimeter=0;" parent="sjEtKSL0Iv_LHzyLlkam-6" source="o3WoTyYF3CoVZhlBRWT3-55" edge="1">
          <mxGeometry width="50" height="50" relative="1" as="geometry">
            <mxPoint x="353.15789473684214" y="430.4347826086957" as="sourcePoint" />
            <mxPoint x="425.3947368421053" y="500.8695652173913" as="targetPoint" />
          </mxGeometry>
        </mxCell>
        <mxCell id="o3WoTyYF3CoVZhlBRWT3-57" value="&lt;font style=&quot;font-size: 15px;&quot;&gt;option 2&lt;/font&gt;" style="text;html=1;align=center;verticalAlign=middle;resizable=0;points=[];autosize=1;strokeColor=none;fillColor=none;rotation=45;" parent="sjEtKSL0Iv_LHzyLlkam-6" vertex="1">
          <mxGeometry x="345.13157894736844" y="453.9130434782609" width="80" height="30" as="geometry" />
        </mxCell>
        <mxCell id="o3WoTyYF3CoVZhlBRWT3-58" value="" style="sketch=0;aspect=fixed;pointerEvents=1;shadow=0;dashed=0;html=1;strokeColor=none;labelPosition=center;verticalLabelPosition=bottom;verticalAlign=top;align=center;fillColor=#00188D;shape=mxgraph.azure.queue_generic" parent="sjEtKSL0Iv_LHzyLlkam-6" vertex="1">
          <mxGeometry x="441.44736842105266" y="493.04347826086956" width="78.26086956521739" height="23.47826086956522" as="geometry" />
        </mxCell>
        <mxCell id="o3WoTyYF3CoVZhlBRWT3-59" value="&lt;font style=&quot;font-size: 15px;&quot;&gt;Message queue&lt;/font&gt;" style="text;html=1;align=center;verticalAlign=middle;resizable=0;points=[];autosize=1;strokeColor=none;fillColor=none;" parent="sjEtKSL0Iv_LHzyLlkam-6" vertex="1">
          <mxGeometry x="429.40789473684214" y="516.5217391304348" width="130" height="30" as="geometry" />
        </mxCell>
        <mxCell id="sjEtKSL0Iv_LHzyLlkam-4" value="" style="group" vertex="1" connectable="0" parent="sjEtKSL0Iv_LHzyLlkam-6">
          <mxGeometry x="529.7368421052632" y="62.608695652173914" width="80.26315789473685" height="86.08695652173914" as="geometry" />
        </mxCell>
        <mxCell id="o3WoTyYF3CoVZhlBRWT3-19" value="" style="rounded=1;whiteSpace=wrap;html=1;fillColor=none;dashed=1;strokeWidth=2;strokeColor=#09C3E0;" parent="sjEtKSL0Iv_LHzyLlkam-4" vertex="1">
          <mxGeometry width="80.26315789473685" height="86.08695652173914" as="geometry" />
        </mxCell>
        <mxCell id="sjEtKSL0Iv_LHzyLlkam-1" value="" style="sketch=0;pointerEvents=1;shadow=0;dashed=0;html=1;strokeColor=none;labelPosition=center;verticalLabelPosition=bottom;verticalAlign=top;outlineConnect=0;align=center;shape=mxgraph.office.servers.physical_host_farm;fillColor=#60A917;" vertex="1" parent="sjEtKSL0Iv_LHzyLlkam-4">
          <mxGeometry x="8.026315789473685" y="7.826086956521739" width="64.21052631578948" height="54.78260869565218" as="geometry" />
        </mxCell>
        <mxCell id="o3WoTyYF3CoVZhlBRWT3-20" value="&lt;font style=&quot;font-size: 15px;&quot;&gt;Workers&lt;/font&gt;" style="text;html=1;align=center;verticalAlign=middle;resizable=0;points=[];autosize=1;strokeColor=none;fillColor=none;" parent="sjEtKSL0Iv_LHzyLlkam-4" vertex="1">
          <mxGeometry x="6.421052631578948" y="62.608695652173914" width="80" height="30" as="geometry" />
        </mxCell>
        <mxCell id="sjEtKSL0Iv_LHzyLlkam-5" value="" style="group" vertex="1" connectable="0" parent="sjEtKSL0Iv_LHzyLlkam-6">
          <mxGeometry x="479.97368421052636" y="172.17391304347828" width="81.86842105263159" height="86.08695652173914" as="geometry" />
        </mxCell>
        <mxCell id="o3WoTyYF3CoVZhlBRWT3-38" value="" style="rounded=1;whiteSpace=wrap;html=1;fillColor=none;dashed=1;strokeWidth=2;strokeColor=#09C3E0;" parent="sjEtKSL0Iv_LHzyLlkam-5" vertex="1">
          <mxGeometry x="1.605263157894737" width="80.26315789473685" height="86.08695652173914" as="geometry" />
        </mxCell>
        <mxCell id="o3WoTyYF3CoVZhlBRWT3-39" value="&lt;font style=&quot;font-size: 15px;&quot;&gt;API servers&lt;/font&gt;" style="text;html=1;align=center;verticalAlign=middle;resizable=0;points=[];autosize=1;strokeColor=none;fillColor=none;" parent="sjEtKSL0Iv_LHzyLlkam-5" vertex="1">
          <mxGeometry y="62.608695652173914" width="100" height="30" as="geometry" />
        </mxCell>
        <mxCell id="sjEtKSL0Iv_LHzyLlkam-3" value="" style="sketch=0;pointerEvents=1;shadow=0;dashed=0;html=1;strokeColor=none;labelPosition=center;verticalLabelPosition=bottom;verticalAlign=top;outlineConnect=0;align=center;shape=mxgraph.office.servers.physical_host_farm;fillColor=#60A917;" vertex="1" parent="sjEtKSL0Iv_LHzyLlkam-5">
          <mxGeometry x="9.631578947368421" y="7.826086956521739" width="64.21052631578948" height="54.78260869565218" as="geometry" />
        </mxCell>
        <mxCell id="sjEtKSL0Iv_LHzyLlkam-7" value="Rate limiter Design" style="text;html=1;align=center;verticalAlign=middle;resizable=0;points=[];autosize=1;strokeColor=#b85450;fillColor=#f8cecc;fontSize=14;fontStyle=1" vertex="1" parent="1">
          <mxGeometry x="480" y="30" width="140" height="30" as="geometry" />
        </mxCell>
      </root>
    </mxGraphModel>
  </diagram>
</mxfile>
